<svg width="75" height="75" viewBox="0 0 75 75" fill="none" xmlns="http://www.w3.org/2000/svg">
<path d="M37.5 4.6875C19.3799 4.6875 4.6875 19.3799 4.6875 37.5C4.6875 55.6201 19.3799 70.3125 37.5 70.3125C55.6201 70.3125 70.3125 55.6201 70.3125 37.5C70.3125 19.3799 55.6201 4.6875 37.5 4.6875ZM37.5 64.7461C22.4561 64.7461 10.2539 52.5439 10.2539 37.5C10.2539 22.4561 22.4561 10.2539 37.5 10.2539C52.5439 10.2539 64.7461 22.4561 64.7461 37.5C64.7461 52.5439 52.5439 64.7461 37.5 64.7461Z" fill="#E32626"/>
<path d="M37.5 10.2539C22.4561 10.2539 10.2539 22.4561 10.2539 37.5C10.2539 52.5439 22.4561 64.7461 37.5 64.7461C52.5439 64.7461 64.7461 52.5439 64.7461 37.5C64.7461 22.4561 52.5439 10.2539 37.5 10.2539ZM21.0938 30.835C21.1125 29.915 21.4912 29.039 22.1484 28.395C22.8057 27.7511 23.6892 27.3904 24.6094 27.3904C25.5295 27.3904 26.413 27.7511 27.0703 28.395C27.7276 29.039 28.1062 29.915 28.125 30.835C28.1062 31.7549 27.7276 32.6309 27.0703 33.2749C26.413 33.9189 25.5295 34.2796 24.6094 34.2796C23.6892 34.2796 22.8057 33.9189 22.1484 33.2749C21.4912 32.6309 21.1125 31.7549 21.0938 30.835ZM48.6328 50.7568H45.1099C44.8022 50.7568 44.5386 50.5225 44.5166 50.2148C44.2383 46.5894 41.1987 43.7256 37.5 43.7256C33.8013 43.7256 30.7544 46.5894 30.4834 50.2148C30.4614 50.5225 30.1978 50.7568 29.8901 50.7568H26.3672C26.2877 50.7569 26.209 50.7409 26.136 50.7096C26.0629 50.6783 25.997 50.6325 25.9422 50.575C25.8873 50.5174 25.8448 50.4493 25.8172 50.3748C25.7895 50.3003 25.7773 50.221 25.7812 50.1416C26.1035 43.9673 31.2378 39.0381 37.5 39.0381C43.7622 39.0381 48.8965 43.9673 49.2188 50.1416C49.2227 50.221 49.2105 50.3003 49.1828 50.3748C49.1552 50.4493 49.1127 50.5174 49.0578 50.575C49.003 50.6325 48.9371 50.6783 48.864 50.7096C48.7909 50.7409 48.7123 50.7569 48.6328 50.7568ZM50.3906 34.3506C49.4706 34.3318 48.5947 33.9532 47.9507 33.2959C47.3067 32.6386 46.946 31.7551 46.946 30.835C46.946 29.9148 47.3067 29.0313 47.9507 28.374C48.5947 27.7168 49.4706 27.3381 50.3906 27.3193C51.3106 27.3381 52.1866 27.7168 52.8305 28.374C53.4745 29.0313 53.8352 29.9148 53.8352 30.835C53.8352 31.7551 53.4745 32.6386 52.8305 33.2959C52.1866 33.9532 51.3106 34.3318 50.3906 34.3506Z" fill="#EAAAAA"/>
<path d="M21.0938 30.835C21.0938 31.7674 21.4641 32.6616 22.1235 33.3209C22.7828 33.9802 23.677 34.3506 24.6094 34.3506C25.5418 34.3506 26.436 33.9802 27.0953 33.3209C27.7546 32.6616 28.125 31.7674 28.125 30.835C28.125 29.9026 27.7546 29.0083 27.0953 28.349C26.436 27.6897 25.5418 27.3193 24.6094 27.3193C23.677 27.3193 22.7828 27.6897 22.1235 28.349C21.4641 29.0083 21.0938 29.9026 21.0938 30.835ZM37.5 39.0381C31.2378 39.0381 26.1035 43.9673 25.7812 50.1416C25.7773 50.221 25.7895 50.3003 25.8172 50.3748C25.8448 50.4493 25.8873 50.5174 25.9422 50.575C25.997 50.6325 26.0629 50.6783 26.136 50.7096C26.209 50.7409 26.2877 50.7569 26.3672 50.7568H29.8901C30.1978 50.7568 30.4614 50.5225 30.4834 50.2148C30.7544 46.5894 33.8013 43.7256 37.5 43.7256C41.1987 43.7256 44.2383 46.5894 44.5166 50.2148C44.5386 50.5225 44.8022 50.7568 45.1099 50.7568H48.6328C48.7123 50.7569 48.791 50.7409 48.864 50.7096C48.9371 50.6783 49.003 50.6325 49.0578 50.575C49.1127 50.5174 49.1552 50.4493 49.1828 50.3748C49.2105 50.3003 49.2227 50.221 49.2188 50.1416C48.8965 43.9673 43.7622 39.0381 37.5 39.0381ZM46.875 30.835C46.875 31.7674 47.2454 32.6616 47.9047 33.3209C48.564 33.9802 49.4582 34.3506 50.3906 34.3506C51.323 34.3506 52.2172 33.9802 52.8765 33.3209C53.5359 32.6616 53.9062 31.7674 53.9062 30.835C53.9062 29.9026 53.5359 29.0083 52.8765 28.349C52.2172 27.6897 51.323 27.3193 50.3906 27.3193C49.4582 27.3193 48.564 27.6897 47.9047 28.349C47.2454 29.0083 46.875 29.9026 46.875 30.835Z" fill="#E32626"/>
</svg>
