<svg width="75" height="75" viewBox="0 0 75 75" fill="none" xmlns="http://www.w3.org/2000/svg">
<path d="M37.5 4.6875C19.3799 4.6875 4.6875 19.3799 4.6875 37.5C4.6875 55.6201 19.3799 70.3125 37.5 70.3125C55.6201 70.3125 70.3125 55.6201 70.3125 37.5C70.3125 19.3799 55.6201 4.6875 37.5 4.6875ZM37.5 64.7461C22.4561 64.7461 10.2539 52.5439 10.2539 37.5C10.2539 22.4561 22.4561 10.2539 37.5 10.2539C52.5439 10.2539 64.7461 22.4561 64.7461 37.5C64.7461 52.5439 52.5439 64.7461 37.5 64.7461Z" fill="#23B098"/>
<path d="M37.5 10.2539C22.4561 10.2539 10.2539 22.4561 10.2539 37.5C10.2539 52.5439 22.4561 64.7461 37.5 64.7461C52.5439 64.7461 64.7461 52.5439 64.7461 37.5C64.7461 22.4561 52.5439 10.2539 37.5 10.2539ZM21.0938 30.835C21.1125 29.915 21.4912 29.039 22.1484 28.395C22.8057 27.7511 23.6892 27.3904 24.6094 27.3904C25.5295 27.3904 26.413 27.7511 27.0703 28.395C27.7276 29.039 28.1062 29.915 28.125 30.835C28.1062 31.7549 27.7276 32.6309 27.0703 33.2749C26.413 33.9189 25.5295 34.2796 24.6094 34.2796C23.6892 34.2796 22.8057 33.9189 22.1484 33.2749C21.4912 32.6309 21.1125 31.7549 21.0938 30.835ZM37.5 50.7568C31.2378 50.7568 26.1035 45.8276 25.7812 39.6533C25.7773 39.5739 25.7895 39.4946 25.8172 39.4201C25.8448 39.3456 25.8873 39.2775 25.9422 39.2199C25.997 39.1624 26.0629 39.1166 26.136 39.0853C26.209 39.0541 26.2877 39.038 26.3672 39.0381H29.8901C30.1978 39.0381 30.4614 39.2725 30.4834 39.5801C30.7617 43.2056 33.8013 46.0693 37.5 46.0693C41.1987 46.0693 44.2456 43.2056 44.5166 39.5801C44.5386 39.2725 44.8022 39.0381 45.1099 39.0381H48.6328C48.7123 39.038 48.7909 39.0541 48.864 39.0853C48.9371 39.1166 49.003 39.1624 49.0578 39.2199C49.1127 39.2775 49.1552 39.3456 49.1828 39.4201C49.2105 39.4946 49.2227 39.5739 49.2188 39.6533C48.8965 45.8276 43.7622 50.7568 37.5 50.7568ZM50.3906 34.3506C49.4706 34.3318 48.5947 33.9532 47.9507 33.2959C47.3067 32.6386 46.946 31.7551 46.946 30.835C46.946 29.9148 47.3067 29.0313 47.9507 28.374C48.5947 27.7168 49.4706 27.3381 50.3906 27.3193C51.3106 27.3381 52.1866 27.7168 52.8305 28.374C53.4745 29.0313 53.8352 29.9148 53.8352 30.835C53.8352 31.7551 53.4745 32.6386 52.8305 33.2959C52.1866 33.9532 51.3106 34.3318 50.3906 34.3506Z" fill="#BEEEE6"/>
<path d="M21.0938 30.835C21.0938 31.7674 21.4641 32.6616 22.1235 33.3209C22.7828 33.9802 23.677 34.3506 24.6094 34.3506C25.5418 34.3506 26.436 33.9802 27.0953 33.3209C27.7546 32.6616 28.125 31.7674 28.125 30.835C28.125 29.9026 27.7546 29.0083 27.0953 28.349C26.436 27.6897 25.5418 27.3193 24.6094 27.3193C23.677 27.3193 22.7828 27.6897 22.1235 28.349C21.4641 29.0083 21.0938 29.9026 21.0938 30.835ZM48.6328 39.0381H45.1099C44.8022 39.0381 44.5386 39.2725 44.5166 39.5801C44.2456 43.2056 41.1987 46.0693 37.5 46.0693C33.8013 46.0693 30.7617 43.2056 30.4834 39.5801C30.4614 39.2725 30.1978 39.0381 29.8901 39.0381H26.3672C26.2877 39.038 26.209 39.0541 26.136 39.0853C26.0629 39.1166 25.997 39.1624 25.9422 39.2199C25.8873 39.2775 25.8448 39.3456 25.8172 39.4201C25.7895 39.4946 25.7773 39.5739 25.7812 39.6533C26.1035 45.8276 31.2378 50.7568 37.5 50.7568C43.7622 50.7568 48.8965 45.8276 49.2188 39.6533C49.2227 39.5739 49.2105 39.4946 49.1828 39.4201C49.1552 39.3456 49.1127 39.2775 49.0578 39.2199C49.003 39.1624 48.9371 39.1166 48.864 39.0853C48.791 39.0541 48.7123 39.038 48.6328 39.0381ZM46.875 30.835C46.875 31.7674 47.2454 32.6616 47.9047 33.3209C48.564 33.9802 49.4582 34.3506 50.3906 34.3506C51.323 34.3506 52.2172 33.9802 52.8765 33.3209C53.5359 32.6616 53.9062 31.7674 53.9062 30.835C53.9062 29.9026 53.5359 29.0083 52.8765 28.349C52.2172 27.6897 51.323 27.3193 50.3906 27.3193C49.4582 27.3193 48.564 27.6897 47.9047 28.349C47.2454 29.0083 46.875 29.9026 46.875 30.835Z" fill="#23B098"/>
</svg>
